<svg xmlns="http://www.w3.org/2000/svg" height="800" width="1200" viewBox="-73.464 -59.7145 636.688 358.287"><defs><clipPath id="a" clipPathUnits="userSpaceOnUse"><path d="M0 0h595.276v595.276H0z"/></clipPath></defs><g clip-path="url(#a)" transform="matrix(7.7903 0 0 -7.7903 -2058.096 4085.304)" fill="#d91920"><path d="M296.81 497.828c-1.216.08-2.617.294-3.722.614-.207.06-1.064.375-1.282.475-3.847 1.782-6.527 5.672-6.527 10.185 0 6.19 5.036 11.232 11.23 11.232 6.14 0 11.141-4.956 11.227-11.076h4.057c-.086 8.356-6.907 15.128-15.284 15.128-8.427 0-15.286-6.855-15.286-15.284 0-5.811 3.268-10.865 8.053-13.447a18.61 18.61 0 012.525-1.057c1.364-.406 3.038-.676 4.528-.79.506-.037 2.273-.057 2.788-.06h27.938v4.042h-27.89c-.372 0-1.993.014-2.356.038m2.355 6.345c-.295 0-1.838.01-2.123.034-.483.04-1.183.113-1.633.216-.508.136-.985.316-1.2.434a4.823 4.823 0 00-2.534 4.245 4.835 4.835 0 004.835 4.837 4.835 4.835 0 004.828-4.681h3.898c-.082 4.75-3.954 8.578-8.726 8.578a8.735 8.735 0 01-8.736-8.734c0-3.402 1.95-6.34 4.79-7.78.437-.255 1.26-.523 1.493-.584.802-.211 1.88-.355 2.753-.42.323-.026 1.905-.038 2.24-.04v-.006h28.005v3.9zm-20.44-10.41h-4.085v26.562h-5.968v4.085h10.052zm-14.537 24.52v-3.927h4.484v-20.592h3.924v24.52zm55.652 5.841c-1.471 0-2.691-1.173-2.691-2.645a2.71 2.71 0 012.69-2.692 2.68 2.68 0 012.69 2.692c0 1.472-1.173 2.645-2.69 2.645m0-4.903a2.246 2.246 0 00-2.261 2.258c0 1.237 1.047 2.216 2.262 2.216 1.214 0 2.256-.979 2.256-2.216a2.242 2.242 0 00-2.256-2.258"/><path d="M320.863 520.755c0 .297-.044.573-.384.682.426.148.468.427.468.596 0 .683-.62.77-.875.77H318.9v-2.645h.49v1.085h.384c.554 0 .6-.255.6-.488 0-.451 0-.536.106-.597h.49c-.106.107-.064.19-.106.597m-.898.874h-.577v.833h.494c.342 0 .574-.108.574-.43 0-.169-.083-.404-.49-.404"/></g></svg>